<svg width="2000" height="2000" viewBox="0 0 529.2 529.2" xmlns="http://www.w3.org/2000/svg"><rect width="100%" height="100%" fill="#000010" rx="50%"></rect><path d="M264.1 52.92c-116.5.275-210.9 94.66-211.2 211.2v1.02c.275 116.5 94.66 210.9 211.2 211.2h1.02c116.5-.275 210.9-94.66 211.2-211.2 0-.282-.004-.739-.011-1.02-.163-6.58-.633-13.15-1.408-19.68a.523.523 0 0 0-.569-.457l-12.12 1.194a.498.498 0 0 0-.447.557 198.26 198.26 0 0 1 1.315 18.39c.007.282.012.738.011 1.02-.215 73.65-41.21 141.1-106.5 175.3a.49.49 0 0 1-.672-.224l-74.06-154.8a.705.705 0 0 1 .167-.793 26.449 26.449 0 0 0 9.047-19.41c.006-.281.004-.738-.003-1.02a26.463 26.463 0 0 0-1.28-7.472.71.71 0 0 1 .263-.768l146.6-98.24a1.231 1.231 123.7 0 0 .522-.784l1.608-8.16a.511.511 56.21 0 0-.401-.6l-8.17-1.628a1.229 1.229 168.7 0 0-.924.185l-146.5 98.15a.695.695 0 0 1-.805-.056 26.457 26.457 0 0 0-17.91-6.568 26.46 26.46 0 0 0-16.71 6.4.705.705 0 0 1-.807.052l-120.3-80.39a.485.485 0 0 1-.124-.695 171.957 171.957 0 0 1 126.5-70.03.59.59 0 0 0 .534-.546l.602-12.26a.447.447 0 0 0-.484-.48c-97.33 5.954-173.4 86.38-173.9 183.9-.002.283.007.74.02 1.02.15 3.506.4 7.006.75 10.5a.509.509 0 0 1-.457.558l-12.12 1.194a.513.513 0 0 1-.56-.457c-.398-3.921-.679-7.852-.843-11.79-.012-.282-.02-.738-.02-1.02.275-109.2 88.74-197.7 197.9-197.9.282 0 .738.013 1.02.03.7.043 1.399.09 2.097.14.281.02.498.265.484.547l-7.104 144.6a.597.597 0 0 1-.534.55 52.902 52.902 0 0 0-24.72 8.575c-.235.155-.234.41 0 .566l11.33 7.57c.234.156.629.181.883.06a39.694 39.694 0 0 1 17.57-3.891 39.696 39.696 0 0 1 16.81 3.988.979.979 0 0 0 .881-.058l11.25-7.535c.234-.157.236-.414.001-.57a52.917 52.917 0 0 0-19.77-8.054.598.598 0 0 1-.477-.6l7.09-144.3a.488.488 0 0 1 .534-.467 198.497 198.497 0 0 1 75.91 22.43.512.512 0 0 0 .691-.21l5.76-10.73a.51.51 0 0 0-.209-.691 211.708 211.708 0 0 0-98.47-25.16c-.281-.002-.738-.004-1.02-.003zm29.34 29.26-.613 12.47c-.014.281.2.548.478.596a171.93 171.93 0 0 1 79.68 36.48.51.51 0 0 0 .718-.07l7.844-9.557a.511.511 0 0 0-.07-.72 185.247 185.247 0 0 0-87.51-39.63.445.445 0 0 0-.53.429zm-1.313 26.72-.608 12.38c-.014.281.2.552.476.605a145.528 145.528 0 0 1 81.01 45.9c.188.21.53.254.764.097l10.39-6.964a.438.438 0 0 0 .088-.669 158.74 158.74 0 0 0-91.59-51.76.438.438 0 0 0-.527.421zm-173.1 66.36 120.2 80.34a.7.7 0 0 1 .258.766 26.463 26.463 0 0 0-1.36 7.705c-.007.281-.01.738-.004 1.02.268 14.21 11.74 25.67 25.94 25.94a26.466 26.466 0 0 0 5.095-.397c.277-.05.6.112.721.366l74.07 154.9a.49.49 0 0 1-.247.665 198.429 198.429 0 0 1-78.62 16.49c-.282 0-.739-.008-1.02-.02a198.46 198.46 0 0 1-11.83-.846.512.512 0 0 1-.457-.56l1.202-12.12a.51.51 0 0 1 .558-.456c3.5.35 7.012.602 10.53.753.281.012.738.021 1.02.02a185.187 185.187 0 0 0 60.56-10.38.447.447 0 0 0 .261-.63l-5.459-11.41a.584.584 0 0 0-.702-.292 171.987 171.987 0 0 1-54.66 9.478c-.282.003-.739-.005-1.02-.017-3.08-.137-6.156-.357-9.225-.66a.51.51 0 0 1-.457-.558l3.326-33.54a.51.51 50.66 0 0-.458-.559l-12.15-1.204a.51.51 140.7 0 0-.558.458l-3.36 33.9a.48.48 0 0 1-.556.432 171.596 171.596 0 0 1-19.03-3.998.492.492 0 0 1-.344-.622l26.21-86.42a.51.51 61.88 0 0-.34-.636l-11.68-3.545a.51.51 151.9 0 0-.637.34l-26.18 86.32a.49.49 0 0 1-.63.324 171.803 171.803 0 0 1-18.01-7.314.482.482 0 0 1-.221-.67l8.779-16.42a.51.51 73.13 0 0-.21-.69l-10.77-5.755a.51.51 163.1 0 0-.69.21l-8.724 16.32a.484.484 0 0 1-.68.19 171.489 171.489 0 0 1-16.11-10.85.488.488 0 0 1-.082-.704l21.4-26.08a.51.51 84.37 0 0-.07-.718l-9.439-7.745a.51.51 174.4 0 0-.718.07l-21.59 26.31a.486.486 0 0 1-.705.056 172.03 172.03 0 0 1-13.77-13.77.486.486 0 0 1 .056-.705l54.68-44.87a.51.51 95.62 0 0 .07-.718l-7.745-9.436a.51.51 5.622 0 0-.718-.07l-54.44 44.68a.488.488 0 0 1-.703-.083 172.206 172.206 0 0 1-10.85-16.11.484.484 0 0 1 .19-.68l14.1-7.534a.51.51 106.9 0 0 .21-.691l-5.756-10.77a.51.51 16.87 0 0-.69-.21l-14.2 7.59a.482.482 0 0 1-.67-.22 172.469 172.469 0 0 1-7.313-18.01.49.49 0 0 1 .324-.63l35.13-10.66a.51.51 118.1 0 0 .34-.637l-3.544-11.68a.51.51 28.13 0 0-.636-.34l-35.22 10.69a.492.492 0 0 1-.622-.345 171.913 171.913 0 0 1-4-19.05.48.48 0 0 1 .433-.554l72.7-7.16a.51.51 129.4 0 0 .458-.557l-1.197-12.15a.51.51 39.37 0 0-.558-.458l-72.34 7.125a.511.511 0 0 1-.559-.458 171.932 171.932 0 0 1-.658-9.202c-.012-.281-.02-.738-.017-1.02.324-31.34 9.208-62 25.69-88.66a.49.49 0 0 1 .693-.15zm287.2 18.67-10.32 6.918a.606.606 0 0 0-.202.744 145.568 145.568 0 0 1 14.19 56.85.604.604 0 0 0 .528.56l12.28 1.209a.438.438 0 0 0 .494-.46 158.793 158.793 0 0 0-16.31-65.65.436.436 0 0 0-.65-.174zm35.03 17.08-11.75 3.562a.509.509 0 0 0-.339.636 171.975 171.975 0 0 1 7.46 48.86c.001.282-.008.739-.02 1.02-.142 3.072-.366 6.14-.672 9.201a.512.512 0 0 1-.559.458l-117.4-11.56a.603.603 0 0 1-.528-.56 52.911 52.911 0 0 0-.963-8.003c-.055-.277-.292-.373-.526-.216l-11.28 7.558a.999.999 0 0 0-.396.793 39.5 39.5 0 0 1 .04 2.33 39.694 39.694 0 0 1-6.672 21.5.99.99 0 0 0-.066.883l5.9 12.34c.122.254.374.291.56.08a52.861 52.861 0 0 0 11.93-23.09.595.595 0 0 1 .622-.447l117.8 11.6c.28.028.477.276.437.555-7.033 49.93-35.62 94.25-78.2 121.3a.588.588 0 0 0-.211.733l5.331 11.14c.122.254.415.34.654.192 54.2-33.69 87.24-92.92 87.44-156.7l-.001-1.02c-.1-17.87-2.783-35.62-7.968-52.72a.51.51 0 0 0-.637-.34zm-176.1 40.35c6.901.262 12.45 5.809 12.71 12.71.01.282.01.739 0 1.02-.262 6.901-5.809 12.45-12.71 12.71-.282.01-.739.01-1.02 0-6.901-.262-12.45-5.809-12.71-12.71a16.21 16.21 0 0 1 0-1.02c.262-6.901 5.809-12.45 12.71-12.71.282-.01.739-.01 1.02 0zm-52.31 3.044a52.886 52.886 0 0 0-1.107 9.666c-.006.282-.009.739-.006 1.02.272 28.82 23.58 52.13 52.4 52.4a49.538 49.538 0 0 0 3.26-.08c.281-.015.41-.236.29-.49l-5.953-12.44a.992.992 0 0 0-.729-.504c-20.18-1.854-35.72-18.63-36.04-38.89-.004-.282.006-.739.023-1.02.03-.502.07-1.003.118-1.503a.933.933 0 0 0-.371-.791l-11.36-7.588c-.234-.157-.474-.06-.531.215zm-131.6 35.39c1.06 7.284 2.552 14.5 4.47 21.6a.529.529 0 0 1-.355.64l-11.69 3.546a.492.492 0 0 1-.622-.344 198.654 198.654 0 0 1-4.94-24.15.486.486 0 0 1 .437-.555l12.12-1.194c.28-.028.54.176.58.455zm8.721 35.21a185.345 185.345 0 0 0 8.326 20.4.537.537 0 0 1-.229.7l-10.74 5.74a.487.487 0 0 1-.673-.22 198.23 198.23 0 0 1-9.339-22.78.491.491 0 0 1 .325-.63l11.68-3.543a.53.53 0 0 1 .652.335zm15.15 32.91a184.527 184.527 0 0 0 12.28 18.27c.17.224.133.55-.085.73l-9.42 7.731a.49.49 0 0 1-.706-.081 198.805 198.805 0 0 1-13.71-20.43.488.488 0 0 1 .194-.682l10.74-5.74a.536.536 0 0 1 .708.2zm21.04 29.51c4.889 5.51 10.1 10.72 15.61 15.61.21.187.237.515.058.733l-7.764 9.46a.49.49 0 0 1-.706.058c-6.174-5.45-12-11.28-17.45-17.45a.49.49 0 0 1 .057-.707l9.461-7.764a.534.534 0 0 1 .732.059zm26.85 24.38a185.522 185.522 0 0 0 18.27 12.28c.243.143.332.46.2.708l-5.74 10.74a.488.488 0 0 1-.682.193 197.839 197.839 0 0 1-20.43-13.71.49.49 0 0 1-.081-.704l7.732-9.421a.532.532 0 0 1 .729-.085zm30.78 19.1a185.026 185.026 0 0 0 20.4 8.326.53.53 0 0 1 .335.652l-3.542 11.68a.491.491 0 0 1-.631.325 198.368 198.368 0 0 1-22.78-9.339.487.487 0 0 1-.219-.673l5.74-10.74a.537.537 0 0 1 .7-.229zm34 12.58a185.33 185.33 0 0 0 21.57 4.468c.279.04.482.3.455.58l-1.202 12.12a.486.486 0 0 1-.556.438 198.078 198.078 0 0 1-24.11-4.938.492.492 0 0 1-.344-.622l3.547-11.69a.529.529 0 0 1 .64-.355z" style="-inkscape-stroke:none;color:#000;fill:#fff"/></svg>